<?xml version="1.0" encoding="UTF-8"?>
<svg id="Calque_2" data-name="Calque 2" xmlns="http://www.w3.org/2000/svg" viewBox="0 0 301 301">
  <defs>
    <style>
      .cls-1 {
        fill: #22b573;
      }

      .cls-1, .cls-2 {
        stroke-width: 0px;
      }

      .cls-2 {
        fill: #fff;
      }
    </style>
  </defs>
  <g id="Calque_1-2" data-name="Calque 1">
    <rect class="cls-1" width="301" height="301" rx="82.16" ry="82.16"/>
    <path class="cls-2" d="m256.93,105.67c-5.78-13.66-14.04-25.92-24.57-36.45-10.53-10.53-22.79-18.8-36.45-24.57-14.15-5.98-29.17-9.02-44.64-9.02s-30.5,3.03-44.64,9.02c-13.66,5.78-25.92,14.04-36.45,24.57-10.53,10.53-18.8,22.79-24.57,36.45-5.98,14.15-9.02,29.17-9.02,44.64s3.03,30.5,9.02,44.64c5.78,13.66,14.04,25.92,24.57,36.45s22.79,18.8,36.45,24.57c14.15,5.98,29.17,9.02,44.64,9.02s30.5-3.03,44.64-9.02c13.66-5.78,25.92-14.04,36.45-24.57,10.53-10.53,18.8-22.79,24.57-36.45,5.98-14.15,9.02-29.17,9.02-44.64s-3.03-30.5-9.02-44.64Zm-109.14,137.88c-6.9-.25-13.68-1.25-20.23-2.96l-6.26-22.73c11.68-7.32,20.54-14.96,26.52-22.87l-.03,48.56Zm27.38-3.02c-6.61,1.74-13.45,2.76-20.43,3.02l.03-48.51c6,7.92,14.89,15.57,26.62,22.91l-6.22,22.59Zm44.65-26.94c-5.7-2.37-14.58-6.38-23.59-11.67-17.78-10.45-28.17-21.26-29.27-30.44-.42-3.55.55-7.12,2.97-10.91,3.33-5.22,9.24-10.63,17.56-16.06,5.73-3.74,8.27-10.65,6.32-17.21-1.95-6.55-7.85-10.94-14.68-10.94h-55.68c-6.83,0-12.73,4.4-14.68,10.94-1.95,6.55.59,13.47,6.32,17.21,8.32,5.43,14.22,10.83,17.56,16.05,2.42,3.79,3.39,7.36,2.97,10.91-1.08,9.14-11.38,19.9-29,30.29-9.08,5.36-18.12,9.44-23.9,11.84-15.99-17.28-24.76-39.61-24.76-63.29,0-24.92,9.71-48.35,27.33-65.97s41.05-27.33,65.97-27.33,48.35,9.7,65.97,27.33,27.33,41.05,27.33,65.97-8.76,46-24.74,63.28Z"/>
  </g>
</svg>