<?xml version="1.0" encoding="UTF-8"?>
<svg id="Calque_2" data-name="Calque 2" xmlns="http://www.w3.org/2000/svg" viewBox="0 0 1464.47 300.82">
  <defs>
    <style>
      .cls-1, .cls-2 {
        stroke-width: 0px;
      }

      .cls-2 {
        fill: #22b573;
      }
    </style>
  </defs>
  <g id="Calque_1-2" data-name="Calque 1">
    <path class="cls-2" d="m289,91.86c-7.58-17.91-18.42-34-32.23-47.81-13.81-13.81-29.89-24.65-47.81-32.23C190.41,3.98,170.71,0,150.41,0s-40,3.98-58.55,11.83c-17.91,7.58-34,18.42-47.81,32.23-13.81,13.81-24.65,29.89-32.23,47.81C3.98,110.41,0,130.11,0,150.41s3.98,40,11.83,58.55c7.58,17.91,18.42,34,32.23,47.81,13.81,13.81,29.89,24.65,47.81,32.23,18.55,7.85,38.25,11.83,58.55,11.83s40-3.98,58.55-11.83c17.91-7.58,34-18.42,47.81-32.23,13.81-13.81,24.65-29.89,32.23-47.81,7.85-18.55,11.83-38.25,11.83-58.55s-3.98-40-11.83-58.55Zm-143.13,180.83c-9.06-.33-17.94-1.64-26.53-3.88l-8.21-29.81c15.32-9.6,26.94-19.62,34.78-29.99l-.04,63.68Zm35.9-3.96c-8.67,2.28-17.64,3.62-26.79,3.95l.04-63.63c7.87,10.39,19.53,20.43,34.91,30.04l-8.16,29.63Zm58.55-35.33c-7.48-3.11-19.12-8.36-30.94-15.3-23.32-13.7-36.95-27.88-38.39-39.93-.55-4.66.72-9.34,3.89-14.31,4.37-6.85,12.12-13.94,23.03-21.06,7.51-4.9,10.84-13.97,8.29-22.57-2.55-8.58-10.29-14.35-19.25-14.35h-73.02c-8.96,0-16.7,5.77-19.25,14.35-2.56,8.6.77,17.66,8.29,22.57,10.91,7.12,18.66,14.2,23.03,21.05,3.17,4.97,4.45,9.65,3.9,14.3-1.42,11.98-14.93,26.09-38.03,39.73-11.91,7.03-23.77,12.38-31.34,15.52-20.97-22.67-32.47-51.95-32.47-83,0-32.68,12.73-63.41,35.84-86.52,23.11-23.11,53.84-35.84,86.52-35.84s63.41,12.73,86.52,35.84c23.11,23.11,35.84,53.84,35.84,86.52s-11.49,60.32-32.45,82.99Z"/>
    <g>
      <path class="cls-1" d="m398.66,238.38V65.24h67.77c12.2,0,22.38,1.9,30.55,5.69,8.16,3.8,14.3,9.03,18.43,15.71,4.12,6.68,6.18,14.39,6.18,23.13s-1.9,16.08-5.69,22.01c-3.79,5.94-8.78,10.47-14.96,13.6-6.18,3.13-12.9,5.03-20.16,5.69l3.71-2.72c7.75.17,14.72,2.23,20.9,6.18s11.09,9.11,14.72,15.46c3.62,6.35,5.44,13.4,5.44,21.15,0,9.07-2.19,17.19-6.55,24.36-4.37,7.17-10.76,12.78-19.17,16.82-8.41,4.04-18.72,6.06-30.92,6.06h-70.25Zm29.68-99.93h33.89c9.56,0,16.82-2.18,21.77-6.55,4.95-4.37,7.42-10.43,7.42-18.18s-2.47-13.56-7.42-17.93c-4.95-4.37-12.29-6.55-22.01-6.55h-33.64v49.22Zm0,75.69h36.11c9.73,0,17.31-2.31,22.76-6.93,5.44-4.61,8.16-11.05,8.16-19.29s-2.81-14.8-8.41-19.66c-5.61-4.86-13.28-7.3-23-7.3h-35.62v53.18Z"/>
      <path class="cls-1" d="m611.38,241.35c-12.37,0-23.25-2.68-32.65-8.04-9.4-5.36-16.74-12.9-22.01-22.63-5.28-9.73-7.92-20.94-7.92-33.64s2.6-24.73,7.79-34.63,12.53-17.64,22.01-23.25c9.48-5.6,20.49-8.41,33.02-8.41s22.84,2.72,31.91,8.16c9.07,5.44,16.08,12.74,21.02,21.89s7.42,19.42,7.42,30.79v5.44c0,1.98-.17,4.04-.49,6.18h-101.41v-19.05h71.98c-.33-9.07-3.38-16.2-9.15-21.4-5.77-5.19-12.95-7.79-21.52-7.79-6.1,0-11.71,1.4-16.82,4.2-5.11,2.81-9.15,6.97-12.12,12.49-2.97,5.53-4.45,12.49-4.45,20.9v7.17c0,7.75,1.44,14.43,4.33,20.03,2.88,5.61,6.84,9.86,11.87,12.74,5.03,2.89,10.67,4.33,16.94,4.33,6.93,0,12.65-1.48,17.19-4.45,4.53-2.97,7.87-6.93,10.02-11.87h30.18c-2.31,7.75-6.1,14.72-11.38,20.9-5.28,6.18-11.79,11.05-19.54,14.59-7.75,3.54-16.49,5.32-26.22,5.32Z"/>
      <path class="cls-1" d="m740.99,241.35c-10.23,0-18.72-1.73-25.48-5.19-6.76-3.46-11.79-8.08-15.09-13.85-3.3-5.77-4.95-12.04-4.95-18.8,0-7.92,2.02-14.76,6.06-20.53,4.04-5.77,10.02-10.27,17.93-13.48s17.64-4.82,29.19-4.82h31.41c0-6.59-.91-12.08-2.72-16.45-1.82-4.37-4.62-7.62-8.41-9.77-3.79-2.14-8.66-3.22-14.59-3.22-6.76,0-12.53,1.53-17.31,4.58-4.78,3.05-7.75,7.71-8.9,13.98h-29.19c.99-8.9,3.96-16.53,8.9-22.88,4.95-6.35,11.5-11.29,19.66-14.84,8.16-3.54,17.11-5.32,26.84-5.32,11.71,0,21.68,2.02,29.93,6.06,8.24,4.04,14.55,9.81,18.92,17.31,4.37,7.51,6.55,16.53,6.55,27.08v77.17h-25.23l-2.97-20.04c-1.65,3.3-3.75,6.35-6.31,9.15-2.56,2.81-5.48,5.24-8.78,7.3-3.3,2.06-7.05,3.67-11.25,4.82-4.21,1.15-8.95,1.73-14.22,1.73Zm6.68-23.5c4.78,0,9.03-.87,12.74-2.6,3.71-1.73,6.93-4.21,9.65-7.42s4.82-6.8,6.31-10.76c1.48-3.96,2.47-8.16,2.97-12.61v-.49h-27.46c-5.77,0-10.55.74-14.35,2.23-3.79,1.48-6.52,3.51-8.16,6.06-1.65,2.56-2.47,5.57-2.47,9.03s.82,6.43,2.47,8.9c1.65,2.47,4.04,4.37,7.17,5.69,3.13,1.32,6.84,1.98,11.13,1.98Z"/>
      <path class="cls-1" d="m841.41,238.38V60.29h29.68v178.09h-29.68Z"/>
      <path class="cls-1" d="m920.31,93.93c-5.44,0-9.94-1.69-13.48-5.07-3.55-3.38-5.32-7.54-5.32-12.49s1.77-9.28,5.32-12.49c3.54-3.22,8.04-4.82,13.48-4.82s9.93,1.61,13.48,4.82c3.54,3.22,5.32,7.38,5.32,12.49s-1.77,9.11-5.32,12.49c-3.55,3.38-8.04,5.07-13.48,5.07Zm-14.84,144.45v-124.66h29.68v124.66h-29.68Z"/>
      <path class="cls-1" d="m1027.9,241.35c-12.37,0-23.25-2.68-32.65-8.04-9.4-5.36-16.74-12.9-22.01-22.63-5.28-9.73-7.92-20.94-7.92-33.64s2.6-24.73,7.79-34.63,12.53-17.64,22.01-23.25c9.48-5.6,20.49-8.41,33.02-8.41s22.84,2.72,31.91,8.16c9.07,5.44,16.08,12.74,21.02,21.89s7.42,19.42,7.42,30.79v5.44c0,1.98-.17,4.04-.49,6.18h-101.41v-19.05h71.98c-.33-9.07-3.38-16.2-9.15-21.4-5.77-5.19-12.95-7.79-21.52-7.79-6.1,0-11.71,1.4-16.82,4.2-5.11,2.81-9.15,6.97-12.12,12.49-2.97,5.53-4.45,12.49-4.45,20.9v7.17c0,7.75,1.44,14.43,4.33,20.03,2.88,5.61,6.84,9.86,11.87,12.74,5.03,2.89,10.67,4.33,16.94,4.33,6.93,0,12.65-1.48,17.19-4.45,4.53-2.97,7.87-6.93,10.02-11.87h30.18c-2.31,7.75-6.1,14.72-11.38,20.9-5.28,6.18-11.79,11.05-19.54,14.59-7.75,3.54-16.49,5.32-26.22,5.32Z"/>
      <path class="cls-1" d="m1145.15,238.38l-46.01-124.66h31.17l32.9,96.47,32.9-96.47h30.67l-46.01,124.66h-35.62Z"/>
      <path class="cls-1" d="m1300.48,241.35c-12.37,0-23.25-2.68-32.65-8.04-9.4-5.36-16.74-12.9-22.01-22.63-5.28-9.73-7.92-20.94-7.92-33.64s2.6-24.73,7.79-34.63,12.53-17.64,22.01-23.25c9.48-5.6,20.49-8.41,33.02-8.41s22.84,2.72,31.91,8.16c9.07,5.44,16.08,12.74,21.02,21.89s7.42,19.42,7.42,30.79v5.44c0,1.98-.17,4.04-.49,6.18h-101.41v-19.05h71.98c-.33-9.07-3.38-16.2-9.15-21.4-5.77-5.19-12.95-7.79-21.52-7.79-6.1,0-11.71,1.4-16.82,4.2-5.11,2.81-9.15,6.97-12.12,12.49-2.97,5.53-4.45,12.49-4.45,20.9v7.17c0,7.75,1.44,14.43,4.33,20.03,2.88,5.61,6.84,9.86,11.87,12.74,5.03,2.89,10.67,4.33,16.94,4.33,6.93,0,12.65-1.48,17.19-4.45,4.53-2.97,7.87-6.93,10.02-11.87h30.18c-2.31,7.75-6.1,14.72-11.38,20.9-5.28,6.18-11.79,11.05-19.54,14.59-7.75,3.54-16.49,5.32-26.22,5.32Z"/>
      <path class="cls-1" d="m1388.54,238.38v-124.66h26.47l2.72,23.25c2.97-5.44,6.68-10.1,11.13-13.98,4.45-3.87,9.69-6.88,15.71-9.03,6.02-2.14,12.65-3.22,19.91-3.22v31.41h-10.39c-4.95,0-9.65.62-14.1,1.86-4.45,1.24-8.29,3.22-11.5,5.94-3.22,2.72-5.73,6.43-7.54,11.13-1.82,4.7-2.72,10.6-2.72,17.69v59.61h-29.68Z"/>
    </g>
  </g>
</svg>