<?xml version="1.0" encoding="UTF-8"?>
<svg id="Calque_2" data-name="Calque 2" xmlns="http://www.w3.org/2000/svg" viewBox="0 0 300.82 300.82">
  <defs>
    <style>
      .cls-1 {
        fill: #22b573;
        stroke-width: 0px;
      }
    </style>
  </defs>
  <g id="Calque_1-2" data-name="Calque 1">
    <path class="cls-1" d="m289,91.86c-7.58-17.91-18.42-34-32.23-47.81-13.81-13.81-29.89-24.65-47.81-32.23C190.41,3.98,170.71,0,150.41,0s-40,3.98-58.55,11.83c-17.91,7.58-34,18.42-47.81,32.23-13.81,13.81-24.65,29.89-32.23,47.81C3.98,110.41,0,130.11,0,150.41s3.98,40,11.83,58.55c7.58,17.91,18.42,34,32.23,47.81,13.81,13.81,29.89,24.65,47.81,32.23,18.55,7.85,38.25,11.83,58.55,11.83s40-3.98,58.55-11.83c17.91-7.58,34-18.42,47.81-32.23,13.81-13.81,24.65-29.89,32.23-47.81,7.85-18.55,11.83-38.25,11.83-58.55s-3.98-40-11.83-58.55Zm-143.13,180.83c-9.06-.33-17.94-1.64-26.53-3.88l-8.21-29.81c15.32-9.6,26.94-19.62,34.78-29.99l-.04,63.68Zm35.9-3.96c-8.67,2.28-17.64,3.62-26.79,3.95l.04-63.63c7.87,10.39,19.53,20.43,34.91,30.04l-8.16,29.63Zm58.55-35.33c-7.48-3.11-19.12-8.36-30.94-15.3-23.32-13.7-36.95-27.88-38.39-39.93-.55-4.66.72-9.34,3.89-14.31,4.37-6.85,12.12-13.94,23.03-21.06,7.51-4.9,10.84-13.97,8.29-22.57-2.55-8.58-10.29-14.35-19.25-14.35h-73.02c-8.96,0-16.7,5.77-19.25,14.35-2.56,8.6.77,17.66,8.29,22.57,10.91,7.12,18.66,14.2,23.03,21.05,3.17,4.97,4.45,9.65,3.9,14.3-1.42,11.98-14.93,26.09-38.03,39.73-11.91,7.03-23.77,12.38-31.34,15.52-20.97-22.67-32.47-51.95-32.47-83,0-32.68,12.73-63.41,35.84-86.52,23.11-23.11,53.84-35.84,86.52-35.84s63.41,12.73,86.52,35.84c23.11,23.11,35.84,53.84,35.84,86.52s-11.49,60.32-32.45,82.99Z"/>
  </g>
</svg>